<svg width="410" height="200" viewBox="0 0 410 200" fill="none" xmlns="http://www.w3.org/2000/svg">
<path d="M369 83C378.159 83 385.351 82.3191 389.5 83.5C396.037 85.3609 396.5 89.8291 396.5 93.5C396.5 99.5 391.657 99.7131 385.534 100.985M369 102C369.799 102 371.136 101.973 372 101.949M372 101.949V117.985M372 101.949C376.322 101.827 381.242 101.876 385.534 100.985M385.534 100.985C389.816 107.624 396 113.985 396 117.985" stroke="#566D7E" stroke-width="6"/>
<path d="M151.5 98C151.5 103.595 151.527 110.353 142.679 113.469C138.901 114.8 133.194 115.115 126 114.966" stroke="#566D7E" stroke-width="6"/>
<path d="M129 100.034C129 94.4281 128.982 87.622 138 84.5C141.851 83.1667 147.168 82.8504 154.5 83" stroke="#566D7E" stroke-width="6"/>
<path d="M166.5 83H195.5M181 93.5V117.5" stroke="#566D7E" stroke-width="6"/>
<path d="M225 114.5C241 114.5 239.5 83 225 83M225 114.5C241 114.5 239.5 83 225 83" stroke="#566D7E" stroke-width="6"/>
<path d="M218.5 83.5C202.5 83.5 204 115 218.5 115M218.5 83.5C202.5 83.5 204 115 218.5 115" stroke="#566D7E" stroke-width="6"/>
<path d="M276 83C242 83 245.5 115.5 276 115.5" stroke="#566D7E" stroke-width="6"/>
<path d="M289.5 80.5V104.5V117.5" stroke="#566D7E" stroke-width="6"/>
<path d="M290 107L314.5 82M305 104.5C309 109 315.5 114 315.5 118" stroke="#566D7E" stroke-width="6"/>
<path d="M330 82.5H357.5M330 98.5H354M330 115.5H357.5" stroke="#566D7E" stroke-width="6"/>
</svg>
